<svg id="Line" xmlns="http://www.w3.org/2000/svg" viewBox="0 0 64 64"><title>1</title><path d="M55.88546,58.64172l-4.10912-10.8929a8.81361,8.81361,0,0,0-5.47916-5.27312l-7.00544-2.38755-1.747-1.90741V35.84683a10.5978,10.5978,0,0,0,4.826-7.96546,4.35741,4.35741,0,0,0,1.3909-8.28545V15.85433L46.39727,14.798v5.40074a1,1,0,0,0,1.99987,0V13.99641l2.00378-.80312a1.006,1.006,0,0,0-.00005-1.85534L32.27214,4.07177a1.00023,1.00023,0,0,0-.74409,0L13.39926,11.33794a.99924.99924,0,0,0,0,1.85535l6.63437,2.65908V19.605a4.3753,4.3753,0,0,0,1.22576,8.26005,10.57673,10.57673,0,0,0,4.98919,8.0793v2.25609l-1.63466,1.96192-6.90633,2.31138a8.81628,8.81628,0,0,0-5.4855,5.27507L8.113,58.64172a1.00736,1.00736,0,0,0,.93552,1.35244c2.63327.01816,17.57278-.013,19.81241.00006,2.31157-.00138,7.67373.001,9.927-.00005H54.95A1.00734,1.00734,0,0,0,55.88546,58.64172ZM35.84,57.9943l-2.70223-7.13043L34.90364,48.68,36.683,50.22719a1.00683,1.00683,0,0,0,1.643-.59374L39.524,42.28,43.87911,43.764,38.10254,57.9943Zm-9.7939,0L20.26347,43.727l4.15307-1.38962,1.25737,7.30491a1.00665,1.00665,0,0,0,1.64151.5849L29.09478,48.68l1.76583,2.18389L28.15838,57.9943Zm5.769-20.4431a10.62884,10.62884,0,0,0,3.72976-.6885v1.382l-3.56357,4.90711-3.73287-4.91834V36.919A10.61719,10.61719,0,0,0,31.81514,37.5512Zm.18407,11.54L30.60483,47.367l1.39438-1.21245L33.3936,47.367Zm1.34758-4.41581,3.2877-4.52725,1.028,1.1223L36.641,47.53985ZM27.2094,40.17189,30.63705,44.688l-3.29381,2.8636L26.2675,41.30225Zm4.78981,13.331,1.70217,4.49143H30.297ZM43.5659,25.217a2.41792,2.41792,0,0,1-1.13128.63638v-4.142c.12218-.11608.2465-.23173.35917-.34934A2.35433,2.35433,0,0,1,43.5659,25.217ZM31.9001,6.07653l15.441,6.18908-15.441,6.18908L21.44077,14.26238c-.06213-.01269-4.92256-1.98188-4.98174-1.99678Zm-.372,14.38293a.99531.99531,0,0,0,.74409,0l9.48967-3.80354v2.84865c-2.26994,2.71037-5.81623,3.95482-9.86169,4.00653-4.04779-.05235-7.59492-1.29628-9.86664-4.012l0-2.84511ZM19.57369,23.04328c.03855-.55057,1.09882-2.01694,1.622-1.4969l0,4.25656A2.418,2.418,0,0,1,19.57369,23.04328Zm3.62185,3.88844v-3.8a16.33933,16.33933,0,0,0,8.70456,2.37919,16.42,16.42,0,0,0,8.53464-2.27172v3.69253C40.03362,38.34989,23.59506,38.33165,23.19554,26.93172ZM14.09307,48.45386a6.82807,6.82807,0,0,1,4.26994-4.091L23.888,57.9943H19.23924V54.37342a1.00012,1.00012,0,0,0-1.99988.00006V57.9943h-6.7452Zm32.666,9.54044V54.37342a.99994.99994,0,0,0-1.99988,0V57.9943h-4.498l5.512-13.57859a6.823,6.823,0,0,1,4.1322,4.03815l3.5989,9.54044Z" id="id_101" style="fill: rgb(203, 109, 49);"></path></svg>